<mxfile host="app.diagrams.net" modified="2024-07-18T17:18:02.899Z" agent="Mozilla/5.0 (X11; Linux x86_64) AppleWebKit/537.36 (KHTML, like Gecko) Chrome/126.0.0.0 Safari/537.36" etag="LltXuS1MDoqIV607wUV1" version="24.7.1" type="device">
  <diagram name="Page-1" id="JukueGkmtYYKsNfNZEDM">
    <mxGraphModel dx="1035" dy="575" grid="1" gridSize="10" guides="1" tooltips="1" connect="1" arrows="1" fold="1" page="1" pageScale="1" pageWidth="827" pageHeight="1169" math="0" shadow="0">
      <root>
        <mxCell id="0" />
        <mxCell id="1" parent="0" />
        <mxCell id="f_NvgmK-bhx9NllFTbnx-2" value="" style="aspect=fixed;sketch=0;html=1;dashed=0;whitespace=wrap;verticalLabelPosition=bottom;verticalAlign=top;fillColor=#2875E2;strokeColor=#ffffff;points=[[0.005,0.63,0],[0.1,0.2,0],[0.9,0.2,0],[0.5,0,0],[0.995,0.63,0],[0.72,0.99,0],[0.5,1,0],[0.28,0.99,0]];shape=mxgraph.kubernetes.icon2;kubernetesLabel=1;prIcon=ns" vertex="1" parent="1">
          <mxGeometry x="130" y="330" width="41.67" height="40" as="geometry" />
        </mxCell>
        <mxCell id="f_NvgmK-bhx9NllFTbnx-3" value="" style="rounded=1;whiteSpace=wrap;html=1;" vertex="1" parent="1">
          <mxGeometry x="120" y="370" width="180" height="170" as="geometry" />
        </mxCell>
        <mxCell id="f_NvgmK-bhx9NllFTbnx-4" value="" style="aspect=fixed;sketch=0;html=1;dashed=0;whitespace=wrap;verticalLabelPosition=bottom;verticalAlign=top;fillColor=#2875E2;strokeColor=#ffffff;points=[[0.005,0.63,0],[0.1,0.2,0],[0.9,0.2,0],[0.5,0,0],[0.995,0.63,0],[0.72,0.99,0],[0.5,1,0],[0.28,0.99,0]];shape=mxgraph.kubernetes.icon2;kubernetesLabel=1;prIcon=ns" vertex="1" parent="1">
          <mxGeometry x="370" y="330" width="41.67" height="40" as="geometry" />
        </mxCell>
        <mxCell id="f_NvgmK-bhx9NllFTbnx-5" value="" style="rounded=1;whiteSpace=wrap;html=1;" vertex="1" parent="1">
          <mxGeometry x="360" y="370" width="180" height="170" as="geometry" />
        </mxCell>
        <mxCell id="f_NvgmK-bhx9NllFTbnx-6" value="" style="aspect=fixed;sketch=0;html=1;dashed=0;whitespace=wrap;verticalLabelPosition=bottom;verticalAlign=top;fillColor=#2875E2;strokeColor=#ffffff;points=[[0.005,0.63,0],[0.1,0.2,0],[0.9,0.2,0],[0.5,0,0],[0.995,0.63,0],[0.72,0.99,0],[0.5,1,0],[0.28,0.99,0]];shape=mxgraph.kubernetes.icon2;kubernetesLabel=1;prIcon=ns" vertex="1" parent="1">
          <mxGeometry x="620" y="330" width="41.67" height="40" as="geometry" />
        </mxCell>
        <mxCell id="f_NvgmK-bhx9NllFTbnx-7" value="" style="rounded=1;whiteSpace=wrap;html=1;" vertex="1" parent="1">
          <mxGeometry x="610" y="370" width="180" height="170" as="geometry" />
        </mxCell>
        <mxCell id="f_NvgmK-bhx9NllFTbnx-8" value="" style="aspect=fixed;sketch=0;html=1;dashed=0;whitespace=wrap;verticalLabelPosition=bottom;verticalAlign=top;fillColor=#2875E2;strokeColor=#ffffff;points=[[0.005,0.63,0],[0.1,0.2,0],[0.9,0.2,0],[0.5,0,0],[0.995,0.63,0],[0.72,0.99,0],[0.5,1,0],[0.28,0.99,0]];shape=mxgraph.kubernetes.icon2;kubernetesLabel=1;prIcon=deploy" vertex="1" parent="1">
          <mxGeometry x="171.68" y="470" width="50" height="48" as="geometry" />
        </mxCell>
        <mxCell id="f_NvgmK-bhx9NllFTbnx-9" value="" style="aspect=fixed;sketch=0;html=1;dashed=0;whitespace=wrap;verticalLabelPosition=bottom;verticalAlign=top;fillColor=#2875E2;strokeColor=#ffffff;points=[[0.005,0.63,0],[0.1,0.2,0],[0.9,0.2,0],[0.5,0,0],[0.995,0.63,0],[0.72,0.99,0],[0.5,1,0],[0.28,0.99,0]];shape=mxgraph.kubernetes.icon2;kubernetesLabel=1;prIcon=deploy" vertex="1" parent="1">
          <mxGeometry x="431.67" y="470.5" width="50" height="48" as="geometry" />
        </mxCell>
        <mxCell id="f_NvgmK-bhx9NllFTbnx-10" value="" style="aspect=fixed;sketch=0;html=1;dashed=0;whitespace=wrap;verticalLabelPosition=bottom;verticalAlign=top;fillColor=#2875E2;strokeColor=#ffffff;points=[[0.005,0.63,0],[0.1,0.2,0],[0.9,0.2,0],[0.5,0,0],[0.995,0.63,0],[0.72,0.99,0],[0.5,1,0],[0.28,0.99,0]];shape=mxgraph.kubernetes.icon2;kubernetesLabel=1;prIcon=sts" vertex="1" parent="1">
          <mxGeometry x="675" y="431" width="50" height="48" as="geometry" />
        </mxCell>
        <mxCell id="f_NvgmK-bhx9NllFTbnx-11" value="&lt;b&gt;Frontend&lt;/b&gt;" style="text;html=1;align=center;verticalAlign=middle;resizable=0;points=[];autosize=1;strokeColor=none;fillColor=none;" vertex="1" parent="1">
          <mxGeometry x="161.67000000000002" y="335" width="70" height="30" as="geometry" />
        </mxCell>
        <mxCell id="f_NvgmK-bhx9NllFTbnx-12" value="&lt;b&gt;Backend&lt;/b&gt;" style="text;html=1;align=center;verticalAlign=middle;resizable=0;points=[];autosize=1;strokeColor=none;fillColor=none;" vertex="1" parent="1">
          <mxGeometry x="411.67" y="335" width="70" height="30" as="geometry" />
        </mxCell>
        <mxCell id="f_NvgmK-bhx9NllFTbnx-13" value="&lt;b&gt;DB&lt;/b&gt;" style="text;html=1;align=center;verticalAlign=middle;resizable=0;points=[];autosize=1;strokeColor=none;fillColor=none;" vertex="1" parent="1">
          <mxGeometry x="661.67" y="335" width="40" height="30" as="geometry" />
        </mxCell>
        <mxCell id="f_NvgmK-bhx9NllFTbnx-14" value="" style="rounded=0;whiteSpace=wrap;html=1;" vertex="1" parent="1">
          <mxGeometry x="350" y="330" width="10" height="230" as="geometry" />
        </mxCell>
        <mxCell id="f_NvgmK-bhx9NllFTbnx-15" value="" style="rounded=0;whiteSpace=wrap;html=1;" vertex="1" parent="1">
          <mxGeometry x="600" y="333" width="10" height="230" as="geometry" />
        </mxCell>
        <mxCell id="f_NvgmK-bhx9NllFTbnx-16" value="" style="aspect=fixed;sketch=0;html=1;dashed=0;whitespace=wrap;verticalLabelPosition=bottom;verticalAlign=top;fillColor=#2875E2;strokeColor=#ffffff;points=[[0.005,0.63,0],[0.1,0.2,0],[0.9,0.2,0],[0.5,0,0],[0.995,0.63,0],[0.72,0.99,0],[0.5,1,0],[0.28,0.99,0]];shape=mxgraph.kubernetes.icon2;prIcon=ing" vertex="1" parent="1">
          <mxGeometry x="50" y="439" width="61" height="58.56" as="geometry" />
        </mxCell>
        <mxCell id="f_NvgmK-bhx9NllFTbnx-17" value="&lt;font style=&quot;font-size: 15px;&quot;&gt;Ingress&amp;nbsp;&lt;/font&gt;&lt;div style=&quot;font-size: 15px;&quot;&gt;&lt;br&gt;&lt;/div&gt;" style="text;html=1;align=center;verticalAlign=middle;resizable=0;points=[];autosize=1;strokeColor=none;fillColor=none;" vertex="1" parent="1">
          <mxGeometry x="45.5" y="490" width="70" height="50" as="geometry" />
        </mxCell>
        <mxCell id="f_NvgmK-bhx9NllFTbnx-18" value="" style="rounded=1;arcSize=10;dashed=1;strokeColor=#F59D56;fillColor=none;gradientColor=none;dashPattern=8 4;strokeWidth=2;" vertex="1" parent="1">
          <mxGeometry x="416.67" y="465" width="78.33" height="65" as="geometry" />
        </mxCell>
        <mxCell id="f_NvgmK-bhx9NllFTbnx-19" value="&lt;b&gt;HPA&lt;/b&gt;" style="text;html=1;align=center;verticalAlign=middle;resizable=0;points=[];autosize=1;strokeColor=none;fillColor=none;" vertex="1" parent="1">
          <mxGeometry x="407" y="438" width="50" height="30" as="geometry" />
        </mxCell>
        <mxCell id="f_NvgmK-bhx9NllFTbnx-20" value="" style="rounded=1;arcSize=10;dashed=1;strokeColor=#F59D56;fillColor=none;gradientColor=none;dashPattern=8 4;strokeWidth=2;" vertex="1" parent="1">
          <mxGeometry x="157.51" y="464" width="78.32" height="66" as="geometry" />
        </mxCell>
        <mxCell id="f_NvgmK-bhx9NllFTbnx-21" value="&lt;b&gt;HPA&lt;/b&gt;" style="text;html=1;align=center;verticalAlign=middle;resizable=0;points=[];autosize=1;strokeColor=none;fillColor=none;" vertex="1" parent="1">
          <mxGeometry x="149" y="437" width="50" height="30" as="geometry" />
        </mxCell>
        <mxCell id="f_NvgmK-bhx9NllFTbnx-23" style="edgeStyle=orthogonalEdgeStyle;rounded=0;orthogonalLoop=1;jettySize=auto;html=1;exitX=1;exitY=0.5;exitDx=0;exitDy=0;entryX=-0.3;entryY=0.543;entryDx=0;entryDy=0;entryPerimeter=0;" edge="1" parent="1" source="f_NvgmK-bhx9NllFTbnx-3" target="f_NvgmK-bhx9NllFTbnx-14">
          <mxGeometry relative="1" as="geometry" />
        </mxCell>
        <mxCell id="f_NvgmK-bhx9NllFTbnx-24" style="edgeStyle=orthogonalEdgeStyle;rounded=0;orthogonalLoop=1;jettySize=auto;html=1;exitX=1;exitY=0.5;exitDx=0;exitDy=0;entryX=-0.2;entryY=0.53;entryDx=0;entryDy=0;entryPerimeter=0;" edge="1" parent="1" source="f_NvgmK-bhx9NllFTbnx-5" target="f_NvgmK-bhx9NllFTbnx-15">
          <mxGeometry relative="1" as="geometry" />
        </mxCell>
        <mxCell id="f_NvgmK-bhx9NllFTbnx-25" value="" style="aspect=fixed;sketch=0;html=1;dashed=0;whitespace=wrap;verticalLabelPosition=bottom;verticalAlign=top;fillColor=#2875E2;strokeColor=#ffffff;points=[[0.005,0.63,0],[0.1,0.2,0],[0.9,0.2,0],[0.5,0,0],[0.995,0.63,0],[0.72,0.99,0],[0.5,1,0],[0.28,0.99,0]];shape=mxgraph.kubernetes.icon2;prIcon=vol" vertex="1" parent="1">
          <mxGeometry x="790" y="431" width="50" height="48" as="geometry" />
        </mxCell>
        <mxCell id="f_NvgmK-bhx9NllFTbnx-26" value="" style="aspect=fixed;sketch=0;html=1;dashed=0;whitespace=wrap;verticalLabelPosition=bottom;verticalAlign=top;fillColor=#2875E2;strokeColor=#ffffff;points=[[0.005,0.63,0],[0.1,0.2,0],[0.9,0.2,0],[0.5,0,0],[0.995,0.63,0],[0.72,0.99,0],[0.5,1,0],[0.28,0.99,0]];shape=mxgraph.kubernetes.icon2;prIcon=svc" vertex="1" parent="1">
          <mxGeometry x="329" y="560" width="50" height="48" as="geometry" />
        </mxCell>
        <mxCell id="f_NvgmK-bhx9NllFTbnx-27" value="" style="aspect=fixed;sketch=0;html=1;dashed=0;whitespace=wrap;verticalLabelPosition=bottom;verticalAlign=top;fillColor=#2875E2;strokeColor=#ffffff;points=[[0.005,0.63,0],[0.1,0.2,0],[0.9,0.2,0],[0.5,0,0],[0.995,0.63,0],[0.72,0.99,0],[0.5,1,0],[0.28,0.99,0]];shape=mxgraph.kubernetes.icon2;prIcon=svc" vertex="1" parent="1">
          <mxGeometry x="580" y="562" width="50" height="48" as="geometry" />
        </mxCell>
        <mxCell id="f_NvgmK-bhx9NllFTbnx-28" value="&lt;b&gt;Backend SVC&lt;/b&gt;" style="text;html=1;align=center;verticalAlign=middle;resizable=0;points=[];autosize=1;strokeColor=none;fillColor=none;" vertex="1" parent="1">
          <mxGeometry x="303" y="603" width="100" height="30" as="geometry" />
        </mxCell>
        <mxCell id="f_NvgmK-bhx9NllFTbnx-29" value="&lt;b&gt;DB Service&lt;/b&gt;" style="text;html=1;align=center;verticalAlign=middle;resizable=0;points=[];autosize=1;strokeColor=none;fillColor=none;" vertex="1" parent="1">
          <mxGeometry x="565" y="604" width="80" height="30" as="geometry" />
        </mxCell>
        <mxCell id="f_NvgmK-bhx9NllFTbnx-30" value="&lt;b&gt;PV&lt;/b&gt;" style="text;html=1;align=center;verticalAlign=middle;resizable=0;points=[];autosize=1;strokeColor=none;fillColor=none;" vertex="1" parent="1">
          <mxGeometry x="795" y="482" width="40" height="30" as="geometry" />
        </mxCell>
        <mxCell id="f_NvgmK-bhx9NllFTbnx-31" value="" style="rounded=0;whiteSpace=wrap;html=1;" vertex="1" parent="1">
          <mxGeometry x="111" y="330" width="10" height="230" as="geometry" />
        </mxCell>
        <mxCell id="f_NvgmK-bhx9NllFTbnx-32" value="" style="aspect=fixed;sketch=0;html=1;dashed=0;whitespace=wrap;verticalLabelPosition=bottom;verticalAlign=top;fillColor=#2875E2;strokeColor=#ffffff;points=[[0.005,0.63,0],[0.1,0.2,0],[0.9,0.2,0],[0.5,0,0],[0.995,0.63,0],[0.72,0.99,0],[0.5,1,0],[0.28,0.99,0]];shape=mxgraph.kubernetes.icon2;prIcon=svc" vertex="1" parent="1">
          <mxGeometry x="90" y="559" width="50" height="48" as="geometry" />
        </mxCell>
        <mxCell id="f_NvgmK-bhx9NllFTbnx-33" value="&lt;b&gt;Frontend SVC&lt;/b&gt;" style="text;html=1;align=center;verticalAlign=middle;resizable=0;points=[];autosize=1;strokeColor=none;fillColor=none;" vertex="1" parent="1">
          <mxGeometry x="65" y="600" width="100" height="30" as="geometry" />
        </mxCell>
        <mxCell id="f_NvgmK-bhx9NllFTbnx-34" value="&lt;b&gt;&lt;font style=&quot;font-size: 30px;&quot;&gt;3 Tier Architecture on K8s&lt;/font&gt;&lt;/b&gt;" style="text;html=1;align=center;verticalAlign=middle;resizable=0;points=[];autosize=1;strokeColor=none;fillColor=none;" vertex="1" parent="1">
          <mxGeometry x="231.67" y="230" width="360" height="50" as="geometry" />
        </mxCell>
      </root>
    </mxGraphModel>
  </diagram>
</mxfile>
